<?xml version="1.0" encoding="UTF-8"?>
<!-- Created with Inkscape (http://www.inkscape.org/) -->
<svg width="500" height="382.07" version="1.1" viewBox="0 0 500 382.07" xmlns="http://www.w3.org/2000/svg" xmlns:cc="http://creativecommons.org/ns#" xmlns:dc="http://purl.org/dc/elements/1.1/" xmlns:rdf="http://www.w3.org/1999/02/22-rdf-syntax-ns#">
 <metadata>
  <rdf:RDF>
   <cc:Work rdf:about="">
    <dc:format>image/svg+xml</dc:format>
    <dc:type rdf:resource="http://purl.org/dc/dcmitype/StillImage"/>
    <dc:title/>
   </cc:Work>
  </rdf:RDF>
 </metadata>
 <g transform="matrix(1.2214 0 0 1.2214 5.2752 3.9052)">
  <path d="m244.63 303.86-15.097-38.106-5.4855 38.115h-17.14l7.6342-66.885h20.13l14.182 36.486 14.182-36.486h20.13l7.6342 66.885h-17.14l-5.4855-38.115-15.097 38.106zm48.363-33.433v-33.443h44.877v15.472h-28.691v11.425h26.787v12.378h-26.795l0.0636 6.0103 0.0636 6.0102 10.89 0.062 17.682 0.062v15.467h-44.877zm-113.05 11.276-9.1104-25.082-9.1104 25.082zm-43.992 21.963 12.974-33.446 12.89-33.242 17.975 0.125 11.704 30.706 12.721 33.387 1.0173 2.6809-17.782-0.1251-2.8682-8.093-27.552-0.1232-2.9377 8.3351h-9.1131l-9.0288-0.20387zm227.73 0.90793c-11.083-1.3888-19.321-6.6967-22.706-14.629-0.81304-1.9051-1.5851-5.1667-1.5851-6.696v-1.04h19.881l0.19691 1.1306c0.29683 1.7044 1.7751 3.939 3.3294 5.0328 3.8035 2.6765 10.844 2.3944 14.009-0.56132 1.9437-1.8154 2.3899-4.8409 1.0284-6.9743-1.313-2.0575-4.8718-3.7251-12.839-6.0162-8.513-2.4481-13.303-4.6476-17.043-7.8254-3.7007-3.1449-5.1878-6.1494-5.4913-11.095-0.48882-7.9643 4.0622-14.236 12.857-17.719 5.1092-2.0234 10.905-2.8365 16.953-2.3784 10.668 0.80806 18.624 5.3858 21.924 12.614 1.1271 2.469 1.4621 3.6829 1.7218 6.2402l0.21151 2.0828h-18.601l-0.18554-0.89259c-0.54869-2.6396-1.7116-4.1816-3.9456-5.2314-1.2688-0.59627-1.6769-0.65983-4.2328-0.65924-2.3255 4.8e-4 -3.0404 0.0917-4.0196 0.5124-2.3038 0.98991-3.4241 2.4613-3.4241 4.4973 0 1.6344 0.5846 2.6853 2.1042 3.7828 1.6656 1.203 3.2452 1.775 10.556 3.8226 10.569 2.9603 15.668 5.1133 19.144 8.0839 2.2514 1.924 3.6586 3.9227 4.6989 6.6738 0.73846 1.9529 0.81222 2.5 0.83408 6.1888 0.0286 4.7967-0.31643 6.1405-2.5116 9.787-3.1888 5.297-9.2396 8.9387-17.832 10.732-2.3966 0.50023-3.6804 0.60791-8.0611 0.67605-2.8658 0.0446-6.0031-0.0182-6.9718-0.13965zm-259.43 0.24369c-4.2261-0.58768-7.8597-1.7458-11.687-3.7248-13.55-7.0068-20.923-22.841-17.708-38.033 3.0023-14.188 14.291-24.794 28.8-27.059 2.7222-0.42496 8.32-0.35772 11.187 0.13437 2.8203 0.484 7.255 1.9079 9.5646 3.071 6.4305 3.2384 12.026 8.847 15.258 15.294 0.88997 1.7753 2.194 5.0956 2.194 5.5863 0 0.13598-3.6773 0.22384-9.3685 0.22384h-9.3685l-0.90142-1.3576c-5.1112-7.698-16.48-9.1974-24.787-3.2694-4.986 3.5579-7.8634 10.586-7.0314 17.174 0.81413 6.4459 4.2822 11.564 9.6231 14.203 3.0169 1.4902 4.8624 1.9035 8.5095 1.9054 3.498 2e-3 5.0937-0.35715 8.093-1.8208 2.6118-1.2745 5.6777-4.235 6.837-6.6019l0.75784-1.5472-9.8672-0.0621-9.8672-0.0622v-12.134h19.255c17.338 0 19.269 0.0375 19.399 0.37651 0.27953 0.72846 0.13857 6.908-0.20604 9.0328-1.1883 7.3265-4.4963 13.753-9.7937 19.025-4.5542 4.533-10.671 7.8023-17.182 9.183-2.6414 0.56014-9.1592 0.81783-11.711 0.46299zm-50.677-42.424c-0.41277-1.3599-2.1324-4.244-3.3287-5.5826-3.9659-4.4375-10.821-6.7626-17.011-5.7696-2.0774 0.33323-5.174 1.4182-6.846 2.3986-0.75129 0.44054-2.334 1.765-3.5172 2.9433-1.7431 1.7359-2.3414 2.5278-3.1539 4.1745-0.55148 1.1177-1.0027 2.1085-1.0027 2.2018 0 0.0932 7.88 0.16962 17.511 0.16962h17.511zm-21.748 42.409c-7.2866-0.9435-14.021-4.1377-19.252-9.1322-8.7299-8.3344-12.516-20.138-10.256-31.971 3.6381-19.046 22.075-31.268 41.209-27.315 2.7996 0.57827 5.2665 1.4393 8.1548 2.8462 10.563 5.1454 17.742 15.263 19.182 27.032 0.26461 2.1638 0.1639 8.0785-0.14611 8.5801-0.08765 0.14181-10.053 0.22702-26.548 0.22702-19.128 0-26.407 0.0725-26.407 0.26318 0 0.75153 0.84239 3.3359 1.5369 4.715 1.8192 3.6124 4.6929 6.4135 8.3414 8.1307 3.1263 1.4714 4.5114 1.7563 8.5691 1.7626 3.9145 6e-3 5.631-0.35666 8.4702-1.7899 2.4774-1.2506 5.7128-4.2255 6.7845-6.2381l0.34854-0.65458h8.801c4.8406 0 8.801 0.0369 8.801 0.0817 0 0.31918-1.0348 2.9662-1.7395 4.4493-4.1933 8.8266-12.367 15.533-22.064 18.103-3.9885 1.0572-9.7275 1.4364-13.786 0.91088z" fill="#25272b" stroke-width=".23595"/>
  <g transform="translate(-241.98 -13.723)" fill-rule="evenodd">
   <rect transform="rotate(45)" x="339.13" y="-286.44" width="112.75" height="112.75" fill="#25272b"/>
   <rect transform="rotate(45)" x="368.63" y="-256.93" width="53.747" height="53.747" fill="#fff"/>
   <rect transform="matrix(.70711 .70711 .70711 -.70711 0 0)" x="339.13" y="286.44" width="112.75" height="31.333" fill="#00adee"/>
   <rect transform="matrix(.70711 .70711 .70711 -.70711 0 0)" x="339.13" y="142.35" width="112.75" height="31.333" fill="#62ba46"/>
   <rect transform="matrix(-.70711 .70711 .70711 .70711 0 0)" x="-286.44" y="451.88" width="112.75" height="31.333" fill="#af1c86"/>
   <rect transform="matrix(-.70711 .70711 .70711 .70711 0 0)" x="-286.44" y="307.8" width="112.75" height="31.333" fill="#ec1c24"/>
  </g>
 </g>
</svg>
